<?xml version="1.0" encoding="UTF-8"?>
<svg id="Ebene_1" data-name="Ebene 1" xmlns="http://www.w3.org/2000/svg" viewBox="0 0 542.17 134.12">
  <defs>
    <style>
      .cls-1 {
        fill: #0c6ba9;
      }

      .cls-2 {
        fill: #61c3d9;
      }

      .cls-3 {
        fill: #1d1d1b;
      }

      .cls-4 {
        fill: #006da9;
      }

      .cls-5 {
        fill: #e8308a;
      }

      .cls-6 {
        fill: #50af47;
      }
    </style>
  </defs>
  <g>
    <rect class="cls-2" x=".61" y="131.04" width="2.61" height="2.61"/>
    <rect class="cls-2" x="4.18" y="125.2" width="2.96" height="2.96"/>
    <rect class="cls-2" x="9.9" y="113.33" width="2.96" height="2.96"/>
    <rect class="cls-2" x="3.21" y="118.41" width="2.96" height="2.96"/>
    <rect class="cls-2" x="1.39" y="106.86" width="2.96" height="2.96"/>
    <rect class="cls-2" x="28.11" y="103.43" width="2.96" height="2.96"/>
    <rect class="cls-2" x="66.18" y="17.81" width="2.96" height="2.96"/>
    <rect class="cls-2" x="57.88" y="8.89" width="2.96" height="2.96"/>
    <rect class="cls-2" x="44.11" y="3.6" width="2.96" height="2.96"/>
    <rect class="cls-2" x="52.93" y="1.79" width="2.96" height="2.96"/>
    <rect class="cls-6" x="56.26" y="3.51" width="2.96" height="2.96"/>
    <rect class="cls-6" x="28.42" y="9.04" width="2.96" height="2.96"/>
    <rect class="cls-6" x="34.52" y="6.51" width="2.96" height="2.96"/>
    <rect class="cls-6" x="39.56" y="5.92" width="1.59" height="1.59" transform="translate(7.07 30.5) rotate(-45)"/>
    <rect class="cls-6" x="34.57" y="10.14" width="1.59" height="1.59" transform="translate(2.63 28.21) rotate(-45)"/>
    <rect class="cls-6" x="41.48" y="7.99" width="2.96" height="2.96"/>
    <rect class="cls-6" x="27.71" y="26.87" width="2.96" height="2.96"/>
    <rect class="cls-6" x="20.16" y="28.16" width="3.77" height="3.77"/>
    <rect class="cls-6" x="21.73" y="55.5" width="5.1" height="5.1"/>
    <rect class="cls-2" x="35.19" y="82.83" width="2.96" height="2.96"/>
    <rect class="cls-2" x="66.66" y="51.75" width="2.96" height="2.96"/>
    <rect class="cls-2" x="6.42" y="120.4" width="4.56" height="4.56"/>
    <rect class="cls-2" x="19.21" y="111.57" width="4.14" height="4.14"/>
    <rect class="cls-2" x="39.09" y="82.1" width="4.14" height="4.14"/>
    <rect class="cls-2" x="54.96" y="77.76" width="4.14" height="4.14"/>
    <rect class="cls-2" x="14.82" y="96.33" width="6.74" height="6.74"/>
    <rect class="cls-2" x="22.92" y="91.13" width="4.69" height="4.69"/>
    <rect class="cls-2" x="53.81" y="68.39" width="4.69" height="4.69"/>
    <rect class="cls-2" x="61.53" y="49.32" width="4.69" height="4.69"/>
    <rect class="cls-2" x="22.68" y="97.14" width="4.69" height="4.69" transform="translate(-63.02 46.84) rotate(-45)"/>
    <rect class="cls-2" x="37.22" y="90.18" width="4.69" height="4.69" transform="translate(-53.84 55.08) rotate(-45)"/>
    <rect class="cls-2" x="69.98" y="55.94" width="4.69" height="4.69" transform="translate(-20.03 68.22) rotate(-45)"/>
    <rect class="cls-2" x="58.62" y="72.49" width="4.69" height="4.69" transform="translate(-35.06 65.02) rotate(-45)"/>
    <rect class="cls-2" x="67.98" y="34.96" width="4.69" height="4.69" transform="translate(-5.78 60.66) rotate(-45)"/>
    <rect class="cls-2" x="31.93" y="96.19" width="6.74" height="6.74"/>
    <rect class="cls-1" x="29.15" y="88.92" width="6.58" height="6.58"/>
    <rect class="cls-1" x="74.72" y="24.18" width="6.58" height="6.58"/>
    <rect class="cls-5" x="27.43" y="39.05" width="5.63" height="5.63"/>
    <rect class="cls-5" x="19.85" y="43.59" width="6.58" height="6.58" transform="translate(-26.37 30.09) rotate(-45)"/>
    <rect class="cls-5" x="26" y="61.46" width="6.58" height="6.58"/>
    <rect class="cls-5" x="33.47" y="66.65" width="3.45" height="3.45"/>
    <rect class="cls-5" x="69.86" y="105.13" width="6.58" height="6.58"/>
    <rect class="cls-5" x="59.28" y="91.21" width="6.58" height="6.58"/>
    <rect class="cls-5" x="77.58" y="97.41" width="6.58" height="6.58" transform="translate(-47.52 86.69) rotate(-45)"/>
    <rect class="cls-1" x="7.86" y="125.79" width="2.22" height="2.22"/>
    <rect class="cls-1" x="3.85" y="115.99" width="2.22" height="2.22"/>
    <rect class="cls-1" x="63.02" y="66.33" width="2.22" height="2.22"/>
    <rect class="cls-1" x="60.45" y="65.95" width="2.22" height="2.22"/>
    <rect class="cls-1" x="22.25" y="102.9" width="2.22" height="2.22"/>
    <rect class="cls-1" x="29.29" y="100.11" width="2.22" height="2.22"/>
    <rect class="cls-1" x="47.12" y="76.99" width="2.22" height="2.22"/>
    <rect class="cls-1" x="43.97" y="77.99" width="2.22" height="2.22"/>
    <rect class="cls-1" x="36.25" y="87.62" width="2.22" height="2.22"/>
    <rect class="cls-1" x="60.94" y="28.89" width="2.22" height="2.22"/>
    <rect class="cls-1" x="60.21" y="13.66" width="2.22" height="2.22"/>
    <rect class="cls-1" x="48.83" y="8.67" width="1.24" height="1.24"/>
    <rect class="cls-1" x="63.32" y="9.82" width="2.22" height="2.22" transform="translate(11.14 48.76) rotate(-45)"/>
    <rect class="cls-1" x="46.58" y=".46" width="2.22" height="2.22" transform="translate(12.86 34.19) rotate(-45.01)"/>
    <rect class="cls-1" x="59.78" y="5.5" width="2.22" height="2.22"/>
    <rect class="cls-1" x="51.34" y="7.21" width="2.22" height="2.22"/>
    <rect class="cls-2" x="45.29" y="8.17" width="2.22" height="2.22"/>
    <rect class="cls-2" x="38.08" y="7.73" width="1.47" height="1.47" transform="translate(5.38 29.93) rotate(-45)"/>
    <rect class="cls-2" x="32.54" y="14.12" width="1.47" height="1.47" transform="translate(-.76 27.88) rotate(-45)"/>
    <rect class="cls-2" x="28.1" y="24.89" width=".99" height=".99" transform="translate(-9.57 27.65) rotate(-45)"/>
    <rect class="cls-2" x="24.23" y="16.93" width="1.47" height="1.47"/>
    <rect class="cls-1" x="30.76" y="85.72" width="2.22" height="2.22"/>
    <rect class="cls-1" x="64.33" y="54.73" width="2.22" height="2.22"/>
    <rect class="cls-1" x="19.42" y="93.54" width="2.22" height="2.22"/>
    <rect class="cls-1" x="54.89" y="64.93" width="2.22" height="2.22"/>
    <rect class="cls-1" x="13.29" y="103.4" width="2.22" height="2.22"/>
    <rect class="cls-1" x="3.67" y="128.94" width="1.94" height="1.94" transform="translate(-90.5 41.34) rotate(-45)"/>
    <rect class="cls-1" x="6.8" y="128.56" width=".88" height=".88" transform="translate(-89.1 42.9) rotate(-45)"/>
    <rect class="cls-1" x="10.63" y="100.99" width=".88" height=".88" transform="translate(-68.48 37.54) rotate(-45)"/>
    <rect class="cls-1" x="26.46" y="105.66" width=".88" height=".88" transform="translate(-67.15 50.1) rotate(-45)"/>
    <rect class="cls-1" x="60.5" y="59.04" width=".88" height=".88" transform="translate(-24.21 60.51) rotate(-45)"/>
    <rect class="cls-1" x="42.86" y="93.12" width=".88" height=".88" transform="translate(-53.48 58.02) rotate(-45)"/>
    <rect class="cls-1" x="31.66" y="105.28" width=".88" height=".88" transform="translate(-65.35 53.66) rotate(-45)"/>
    <rect class="cls-1" x="42.76" y="75.72" width=".88" height=".88" transform="translate(-41.2 52.86) rotate(-45)"/>
    <rect class="cls-1" x="60.02" y="69.43" width=".88" height=".88"/>
    <rect class="cls-1" x="87.42" y="52.34" width=".88" height=".88"/>
    <rect class="cls-1" x="82.23" y="12.39" width=".88" height=".88"/>
    <rect class="cls-1" x="63.12" y="71.1" width=".88" height=".88"/>
    <rect class="cls-6" x="51.39" y="10.36" width=".88" height=".88" transform="translate(7.54 39.82) rotate(-45)"/>
    <rect class="cls-6" x="26.28" y="13.69" width=".88" height=".88" transform="translate(-2.16 23.03) rotate(-45)"/>
    <rect class="cls-6" x="37.33" y="5.02" width=".88" height=".88" transform="translate(7.2 28.31) rotate(-45)"/>
    <rect class="cls-6" x="20.64" y="35.73" width=".88" height=".88" transform="translate(-19.4 25.5) rotate(-45)"/>
    <rect class="cls-6" x="18.87" y="42.58" width="1.59" height="1.59" transform="translate(-24.92 26.61) rotate(-45)"/>
    <rect class="cls-6" x="27.67" y="47.61" width=".88" height=".88" transform="translate(-25.74 33.95) rotate(-45)"/>
    <rect class="cls-6" x="35.38" y="53.89" width=".88" height=".88" transform="translate(-27.93 41.24) rotate(-45)"/>
    <rect class="cls-6" x="36.48" y="62.43" width=".88" height=".88" transform="translate(-33.64 44.52) rotate(-45)"/>
    <rect class="cls-6" x="46.2" y="68.91" width=".88" height=".88" transform="translate(-35.38 53.29) rotate(-45)"/>
    <rect class="cls-6" x="87.4" y="100.78" width=".88" height=".88" transform="translate(-45.85 91.76) rotate(-45)"/>
    <rect class="cls-6" x="39.81" y="73.81" width=".88" height=".88" transform="translate(-40.71 50.2) rotate(-45)"/>
    <rect class="cls-6" x="54.42" y="92.6" width=".88" height=".88" transform="translate(-49.72 66.04) rotate(-45)"/>
    <rect class="cls-6" x="55.27" y="91.77" width=".88" height=".88" transform="translate(-48.88 66.4) rotate(-45)"/>
    <rect class="cls-6" x="60.3" y="98.93" width=".88" height=".88" transform="translate(-52.47 72.05) rotate(-45)"/>
    <rect class="cls-6" x="70.8" y="97.07" width=".88" height=".88" transform="translate(-48.09 78.93) rotate(-45)"/>
    <rect class="cls-6" x="67.91" y="96.99" width="1.9" height="1.9" transform="translate(-49.08 77.38) rotate(-45)"/>
    <rect class="cls-6" x="60.29" y="86.14" width="1.36" height="1.36" transform="translate(-43.53 68.54) rotate(-45)"/>
    <rect class="cls-6" x="67.73" y="109.81" width="1.39" height="1.39" transform="translate(-58.1 80.75) rotate(-45)"/>
    <rect class="cls-5" x="21.65" y="26.19" width=".88" height=".88" transform="translate(-12.36 23.42) rotate(-45)"/>
    <rect class="cls-5" x="48.72" y="94.17" width=".88" height=".88" transform="translate(-52.49 62.43) rotate(-44.98)"/>
    <rect class="cls-5" x="66.46" y="98.08" width=".88" height=".88" transform="translate(-50.07 76.16) rotate(-45)"/>
    <rect class="cls-5" x="65.73" y="109.22" width=".88" height=".88" transform="translate(-58.16 78.91) rotate(-45)"/>
    <rect class="cls-5" x="93.44" y="105.33" width="1.73" height="1.73"/>
    <rect class="cls-5" x="85.5" y="127.45" width=".88" height=".88" transform="translate(-65.26 98.23) rotate(-45)"/>
    <rect class="cls-5" x="93.51" y="132.84" width=".88" height=".88" transform="translate(-66.73 105.47) rotate(-45)"/>
    <rect class="cls-6" x="54.35" y="7.98" width=".88" height=".88" transform="translate(10.09 41.21) rotate(-45)"/>
    <rect class="cls-6" x="61.22" y="11.61" width="1.37" height="1.37"/>
    <rect class="cls-6" x="41.63" y=".97" width="1.37" height="1.37"/>
    <rect class="cls-1" x="57.21" y="7.27" width=".88" height=".88" transform="translate(11.44 43.02) rotate(-45)"/>
    <rect class="cls-1" x="51.68" y="3.02" width=".88" height=".88" transform="translate(12.83 37.88) rotate(-45.02)"/>
    <rect class="cls-1" x="42.49" y="4.53" width=".88" height=".88"/>
    <rect class="cls-1" x="41.38" y="88.36" width=".88" height=".88" transform="translate(-50.54 55.58) rotate(-45)"/>
    <rect class="cls-2" x="11.78" y="98.89" width=".88" height=".88" transform="translate(-66.66 37.73) rotate(-45)"/>
    <rect class="cls-2" x="30.08" y="98.18" width=".88" height=".88" transform="translate(-60.79 50.47) rotate(-45)"/>
    <rect class="cls-2" x="53.59" y="80.06" width=".88" height=".88" transform="translate(-41.1 61.78) rotate(-45)"/>
    <rect class="cls-2" x="26.32" y="89.36" width=".88" height=".88" transform="translate(-55.66 45.22) rotate(-45)"/>
    <rect class="cls-2" x="51.16" y="87.83" width=".88" height=".88" transform="translate(-47.31 62.34) rotate(-45)"/>
    <rect class="cls-2" x="12.59" y="101.85" width=".88" height=".88"/>
    <rect class="cls-2" x="13.45" y="99.7" width=".88" height=".88"/>
    <rect class="cls-2" x="14.35" y="113.39" width=".88" height=".88"/>
    <rect class="cls-2" x="43.91" y="81.3" width=".88" height=".88"/>
    <rect class="cls-2" x="57.64" y="64.04" width=".88" height=".88"/>
    <rect class="cls-2" x="67.4" y="55.59" width="1.15" height="1.15" transform="translate(-19.8 64.54) rotate(-45.02)"/>
    <rect class="cls-2" x="66.88" y="66.5" width="1.15" height="1.15"/>
    <rect class="cls-2" x="53.77" y="74.04" width=".87" height=".87"/>
    <rect class="cls-2" x="52.57" y="70.87" width=".87" height=".87"/>
    <rect class="cls-1" x="55.49" y="74.2" width=".88" height=".88"/>
    <rect class="cls-1" x="56.62" y="75.66" width="1.3" height="1.3"/>
    <rect class="cls-1" x="50.8" y="68.51" width="1.3" height="1.3"/>
    <rect class="cls-1" x="49.8" y="80.62" width="1.3" height="1.3"/>
    <rect class="cls-2" x="57.64" y="62.71" width=".88" height=".88"/>
    <rect class="cls-2" x="63.79" y="57.85" width=".88" height=".88"/>
    <rect class="cls-2" x="73.5" y="35.27" width=".88" height=".88"/>
    <rect class="cls-2" x="63.28" y="37.35" width=".88" height=".88"/>
    <rect class="cls-2" x="62.98" y="18.95" width=".88" height=".88"/>
    <rect class="cls-2" x="66.9" y="21.71" width="1.21" height="1.21"/>
    <rect class="cls-2" x="68.67" y="7.43" width=".88" height=".88"/>
    <rect class="cls-2" x="53.55" y="5.56" width=".88" height=".88"/>
    <rect class="cls-2" x="40" y="2.42" width=".88" height=".88"/>
    <rect class="cls-2" x="40.18" y="9.62" width=".88" height=".88"/>
    <rect class="cls-2" x="36.03" y="13.16" width=".88" height=".88"/>
    <rect class="cls-2" x="35.27" y="14.89" width=".88" height=".88"/>
    <rect class="cls-2" x="62.26" y="57.85" width=".88" height=".88"/>
    <rect class="cls-2" x="59.07" y="70.48" width=".88" height=".88"/>
    <rect class="cls-2" x="64.46" y="69.05" width=".88" height=".88"/>
    <rect class="cls-2" x="60.93" y="45.55" width=".88" height=".88"/>
    <rect class="cls-2" x="89.21" y="23.58" width=".88" height=".88"/>
    <rect class="cls-2" x="91.06" y="17.76" width=".88" height=".88" transform="translate(13.93 70.03) rotate(-45)"/>
    <rect class="cls-2" x="89.83" y="41.6" width=".88" height=".88" transform="translate(-3.29 76.14) rotate(-45)"/>
    <rect class="cls-2" x="79.16" y="55.08" width=".88" height=".88"/>
    <rect class="cls-2" x="75.71" y="62.36" width=".88" height=".88"/>
    <rect class="cls-2" x="59.46" y="50.56" width=".88" height=".88"/>
    <rect class="cls-2" x="67.77" y="32.37" width=".88" height=".88" transform="translate(-3.22 57.84) rotate(-45)"/>
    <rect class="cls-2" x="71.99" y="27.67" width=".88" height=".88" transform="translate(1.34 59.45) rotate(-45)"/>
    <rect class="cls-2" x="69.35" y="13.52" width=".88" height=".88" transform="translate(10.57 53.44) rotate(-45)"/>
    <rect class="cls-2" x="61.61" y="21.07" width="1.55" height="1.55" transform="translate(2.82 50.51) rotate(-45)"/>
    <rect class="cls-2" x="61.01" y="17.02" width="1.55" height="1.55"/>
    <rect class="cls-2" x="81.71" y="21.97" width="1.55" height="1.55" transform="translate(8.08 64.99) rotate(-45)"/>
    <rect class="cls-2" x="73.15" y="16.73" width="1.55" height="1.55" transform="translate(9.28 57.4) rotate(-45)"/>
    <rect class="cls-6" x="44.3" y="1.17" width=".88" height=".88"/>
    <rect class="cls-6" x="38.29" y="2.42" width="1.22" height="1.22"/>
    <rect class="cls-6" x="47.92" y="7.61" width=".88" height=".88"/>
    <rect class="cls-6" x="24.21" y="25.28" width=".88" height=".88"/>
    <rect class="cls-6" x="25.17" y="50.84" width=".88" height=".88"/>
    <rect class="cls-6" x="19.16" y="49.78" width=".88" height=".88"/>
    <rect class="cls-6" x="103.12" y="107.27" width=".88" height=".88"/>
    <rect class="cls-6" x="24.98" y="35.37" width=".88" height=".88"/>
    <rect class="cls-6" x="31.15" y="35.8" width="1.18" height="1.18"/>
    <rect class="cls-6" x="27.32" y="54.01" width="1.18" height="1.18"/>
    <rect class="cls-6" x="32.41" y="53.76" width="1.62" height="1.62"/>
    <rect class="cls-6" x="30.52" y="70.79" width=".92" height=".92"/>
    <rect class="cls-6" x="36.01" y="79.22" width=".92" height=".92"/>
    <rect class="cls-6" x="23.59" y="61.87" width="1.62" height="1.62"/>
    <rect class="cls-6" x="24.74" y="40.02" width="1.62" height="1.62"/>
    <rect class="cls-5" x="31.56" y="23.52" width=".88" height=".88"/>
    <rect class="cls-5" x="33.86" y="19.04" width=".88" height=".88"/>
    <rect class="cls-5" x="32.89" y="6.66" width="1.17" height="1.17"/>
    <rect class="cls-5" x="33.72" y="16.87" width="1.17" height="1.17"/>
    <rect class="cls-5" x="26.75" y="19.22" width="1.17" height="1.17"/>
    <rect class="cls-5" x="31.15" y="25.38" width="1.54" height="1.54" transform="translate(-9.14 30.23) rotate(-45)"/>
    <rect class="cls-5" x="21.99" y="23.37" width="1.88" height="1.88" transform="translate(-10.47 23.33) rotate(-45)"/>
    <rect class="cls-5" x="34.52" y="4.4" width=".88" height=".88"/>
    <rect class="cls-5" x="34.63" y="12.52" width=".88" height=".88"/>
    <rect class="cls-5" x="24.85" y="27.86" width=".88" height=".88"/>
    <rect class="cls-5" x="30.79" y="33.96" width=".88" height=".88"/>
    <rect class="cls-5" x="22.2" y="20.69" width=".88" height=".88"/>
    <rect class="cls-5" x="34.15" y="45.34" width=".88" height=".88"/>
    <rect class="cls-5" x="36.07" y="64.32" width=".88" height=".88"/>
    <rect class="cls-5" x="39.26" y="72.02" width=".88" height=".88"/>
    <rect class="cls-5" x="34.69" y="72.63" width=".88" height=".88"/>
    <rect class="cls-5" x="34.02" y="63.17" width=".88" height=".88"/>
    <rect class="cls-5" x="20.73" y="52.15" width=".88" height=".88"/>
    <rect class="cls-5" x="19.03" y="33.42" width=".88" height=".88"/>
    <rect class="cls-5" x="20.73" y="53.55" width=".88" height=".88"/>
    <rect class="cls-5" x="24.75" y="42.24" width=".88" height=".88"/>
    <rect class="cls-5" x="22.75" y="32.5" width="2.08" height="2.08"/>
    <rect class="cls-5" x="40.33" y="3.79" width=".88" height=".88"/>
    <rect class="cls-5" x="66.52" y="90.99" width=".88" height=".88"/>
    <rect class="cls-5" x="75.46" y="95.98" width=".88" height=".88"/>
    <rect class="cls-5" x="98.04" y="106.76" width=".88" height=".88"/>
    <rect class="cls-5" x="64.06" y="88.54" width="1.5" height="1.5"/>
    <rect class="cls-5" x="53.32" y="87.26" width="1.5" height="1.5"/>
    <rect class="cls-5" x="57.48" y="82.73" width=".88" height=".88"/>
    <rect class="cls-5" x="88.23" y="133.24" width=".88" height=".88"/>
    <rect class="cls-5" x="92.64" y="122.64" width=".88" height=".88"/>
    <rect class="cls-6" x="50.54" y=".16" width=".88" height=".88"/>
    <rect class="cls-2" x="48.29" y="91.17" width=".88" height=".88"/>
    <rect class="cls-2" x="43.81" y="83.78" width=".88" height=".88"/>
    <rect class="cls-2" x=".8" y="126.78" width="2.32" height="2.32" transform="translate(-89.9 38.86) rotate(-45)"/>
    <rect class="cls-2" x="8.63" y="117.16" width="2.32" height="2.32" transform="translate(-80.8 41.58) rotate(-45)"/>
    <rect class="cls-2" x="16.73" y="107.89" width="3.34" height="3.34" transform="translate(-72.08 45.1) rotate(-44.99)"/>
    <rect class="cls-2" x="48.4" y="71.01" width="3.34" height="3.34" transform="translate(-36.73 56.69) rotate(-45)"/>
    <rect class="cls-2" x="70.9" y="41.6" width="2.29" height="2.29"/>
    <rect class="cls-2" x="76.92" y="49" width="2.44" height="2.44" transform="translate(-12.62 69.96) rotate(-45)"/>
    <rect class="cls-2" x="61.75" y="39.41" width="2.29" height="2.29"/>
    <rect class="cls-6" x="37.24" y="10.52" width="2.29" height="2.29"/>
    <rect class="cls-6" x="28.52" y="21.53" width="2.29" height="2.29"/>
    <rect class="cls-5" x="30.28" y="30.44" width="2.29" height="2.29"/>
    <rect class="cls-5" x="27.79" y="35.38" width="2.05" height="2.05" transform="translate(-17.3 31.04) rotate(-45)"/>
    <rect class="cls-5" x="31.76" y="11.33" width="2.29" height="2.29"/>
    <rect class="cls-5" x="31" y="18.91" width="2.29" height="2.29"/>
    <rect class="cls-5" x="23.89" y="20.29" width="2.29" height="2.29"/>
    <rect class="cls-5" x="25.93" y="23.92" width="1.29" height="1.29"/>
    <rect class="cls-5" x="23.42" y="52.75" width="2.29" height="2.29"/>
    <rect class="cls-5" x="26.61" y="49.4" width="3.69" height="3.69"/>
    <rect class="cls-5" x="30.43" y="45.75" width="2.29" height="2.29"/>
    <rect class="cls-5" x="18.61" y="38.93" width="2.29" height="2.29"/>
    <rect class="cls-5" x="62.32" y="98.62" width="2.29" height="2.29"/>
    <rect class="cls-5" x="55.65" y="93.43" width="2.29" height="2.29"/>
    <rect class="cls-5" x="50.64" y="91.29" width="2.79" height="2.79"/>
    <rect class="cls-5" x="63.15" y="105.44" width="2.29" height="2.29"/>
    <rect class="cls-5" x="83.68" y="116.83" width="2.29" height="2.29"/>
    <rect class="cls-5" x="91.97" y="109.77" width="2.29" height="2.29"/>
    <rect class="cls-5" x="91.49" y="119.5" width="2.29" height="2.29"/>
    <rect class="cls-5" x="77.44" y="106.78" width=".88" height=".88"/>
    <rect class="cls-5" x="56.87" y="91.7" width=".88" height=".88"/>
    <rect class="cls-5" x="67.86" y="90.99" width="1.32" height="1.32"/>
    <rect class="cls-5" x="91.3" y="128.36" width="2.29" height="2.29" transform="translate(-64.5 103.3) rotate(-45)"/>
    <rect class="cls-5" x="38.29" y="61.24" width="2.29" height="2.29"/>
    <rect class="cls-5" x="31.74" y="52.52" width=".74" height=".74"/>
    <rect class="cls-5" x="46.57" y="70.8" width=".74" height=".74"/>
    <rect class="cls-5" x="37.49" y="76.99" width="2.29" height="2.29"/>
    <rect class="cls-5" x="41.08" y="70.99" width="2.29" height="2.29"/>
    <rect class="cls-5" x="57.26" y="84.37" width="2.29" height="2.29"/>
    <rect class="cls-5" x="71.84" y="93.34" width="2.29" height="2.29"/>
    <rect class="cls-5" x="30" y="72.68" width="2.29" height="2.29"/>
    <rect class="cls-6" x="55.26" y="10.42" width="2.29" height="2.29"/>
    <rect class="cls-2" x="5.69" y="108.36" width="3.34" height="3.34" transform="translate(-75.65 37.43) rotate(-45)"/>
    <rect class="cls-2" x=".8" y="116.53" width="2.32" height="2.32" transform="translate(-82.65 35.86) rotate(-45)"/>
    <rect class="cls-2" x="6.42" y="113.54" width="1.37" height="1.37"/>
    <rect class="cls-2" x="4.99" y="104.49" width="1.37" height="1.37"/>
    <rect class="cls-2" x="16.15" y="105.04" width="2.32" height="2.32" transform="translate(-70.02 43.33) rotate(-44.99)"/>
    <rect class="cls-2" x="39.8" y="95.95" width="2.32" height="2.32" transform="translate(-56.67 57.41) rotate(-45)"/>
    <rect class="cls-2" x="44.57" y="74.07" width="2.32" height="2.32" transform="translate(-39.8 54.37) rotate(-45)"/>
    <rect class="cls-2" x="27.16" y="96.03" width="2.32" height="2.32" transform="translate(-60.43 48.49) rotate(-45)"/>
    <rect class="cls-2" x="70.16" y="29" width="2.32" height="2.32" transform="translate(-.44 59.27) rotate(-45)"/>
    <rect class="cls-2" x="44.08" y="91.55" width="2.32" height="2.32" transform="translate(-52.31 59.15) rotate(-45)"/>
    <rect class="cls-2" x="39.66" y="78.96" width="2.32" height="2.32" transform="translate(-44.7 52.33) rotate(-45)"/>
    <rect class="cls-2" x="60.59" y="62.75" width="2.32" height="2.32" transform="translate(-27.11 62.4) rotate(-45.01)"/>
    <rect class="cls-2" x="54.53" y="61.41" width="2.32" height="2.32" transform="translate(-27.94 57.71) rotate(-45)"/>
    <rect class="cls-1" x=".79" y="121.87" width="3.79" height="3.79" transform="translate(-86.73 38.15) rotate(-45)"/>
    <rect class="cls-1" x="7.58" y="102.39" width="3.79" height="3.79" transform="translate(-70.97 37.25) rotate(-45)"/>
    <rect class="cls-1" x="50.36" y="74.74" width="3.79" height="3.79" transform="translate(-38.89 59.4) rotate(-45)"/>
    <rect class="cls-1" x="62.45" y="22.78" width="5.05" height="5.05" transform="translate(1.14 53.35) rotate(-45)"/>
    <rect class="cls-6" x="48.19" y="3.85" width="3.44" height="3.44" transform="translate(10.68 36.92) rotate(-45)"/>
    <rect class="cls-6" x="26.02" y="31.21" width="3.44" height="3.44" transform="translate(-15.16 29.26) rotate(-45)"/>
    <rect class="cls-6" x="33.23" y="60.02" width="2.46" height="2.46"/>
    <rect class="cls-6" x="37.94" y="68.81" width="1.74" height="1.74"/>
    <rect class="cls-6" x="69.25" y="93.74" width="1.74" height="1.74"/>
    <rect class="cls-6" x="66.58" y="93.39" width="2.08" height="2.08"/>
    <rect class="cls-6" x="54.14" y="89.1" width="1.74" height="1.74"/>
    <rect class="cls-6" x="65.43" y="101.42" width="3.69" height="3.69"/>
    <rect class="cls-6" x="86.19" y="123.14" width="2.31" height="2.31" transform="translate(-62.3 98.16) rotate(-45)"/>
    <rect class="cls-6" x="96.03" y="125.58" width="3.19" height="3.19" transform="translate(-61.33 106.3) rotate(-45.01)"/>
    <rect class="cls-6" x="66.79" y="106.34" width="2.33" height="2.33"/>
    <rect class="cls-6" x="57.08" y="88.21" width="2.38" height="2.38" transform="translate(-46.15 67.38) rotate(-45)"/>
    <rect class="cls-6" x="35.89" y="73.03" width="1.74" height="1.74"/>
    <rect class="cls-6" x="58.9" y="102.55" width="1.74" height="1.74"/>
    <rect class="cls-6" x="61.26" y="102.55" width="1.18" height="1.18"/>
    <rect class="cls-6" x="57.13" y="98.93" width="2.02" height="2.02"/>
    <rect class="cls-6" x="79.08" y="114.57" width="1.47" height="1.47"/>
    <rect class="cls-6" x="85.2" y="111.3" width="2.81" height="2.81"/>
    <rect class="cls-6" x="87.32" y="115.13" width="4.05" height="4.05"/>
    <rect class="cls-6" x="96.76" y="112.98" width="2.9" height="2.9"/>
    <rect class="cls-6" x="103.15" y="114.43" width="1.25" height="1.24"/>
    <rect class="cls-6" x="76.68" y="112.66" width="1.82" height="1.82" transform="translate(-57.58 88.13) rotate(-45)"/>
    <rect class="cls-6" x="74.97" y="102.44" width="1.82" height="1.82" transform="translate(-50.85 83.93) rotate(-45)"/>
    <rect class="cls-6" x="61.04" y="88.19" width="1.86" height="1.86"/>
    <rect class="cls-6" x="82.08" y="104.97" width="1.32" height="1.32"/>
    <rect class="cls-6" x="83.9" y="104.97" width="1.77" height="1.77"/>
    <rect class="cls-6" x="32.84" y="70.42" width="1.53" height="1.53"/>
    <rect class="cls-6" x="35.95" y="56.83" width="2.46" height="2.46"/>
    <rect class="cls-6" x="27.38" y="68.77" width="2.46" height="2.46" transform="translate(-41.12 40.73) rotate(-45)"/>
    <rect class="cls-6" x="42.79" y="68.16" width="2.46" height="2.46" transform="translate(-36.18 51.45) rotate(-45)"/>
    <rect class="cls-6" x="32.19" y="48.77" width="3.44" height="3.44" transform="translate(-25.77 38.76) rotate(-44.99)"/>
    <rect class="cls-1" x="57.22" y="54.19" width="3.79" height="3.79" transform="translate(-22.34 58.23) rotate(-45)"/>
    <rect class="cls-1" x="72.11" y="46.49" width="2.51" height="2.51" transform="translate(-12.27 65.85) rotate(-44.99)"/>
    <rect class="cls-1" x="60.57" y="47.44" width="1.56" height="1.56"/>
    <rect class="cls-1" x="56.8" y="59.59" width="1.56" height="1.56"/>
    <rect class="cls-1" x="67.78" y="48.92" width="1.57" height="1.56"/>
    <rect class="cls-1" x="64.97" y="36.1" width="1.57" height="1.56"/>
    <rect class="cls-1" x="64.97" y="38.43" width="1.57" height="1.56"/>
    <rect class="cls-1" x="73.55" y="38.43" width="1.57" height="1.56"/>
    <rect class="cls-1" x="73.55" y="20.92" width="1.57" height="1.56"/>
    <rect class="cls-1" x="80.28" y="33.79" width="1.56" height="1.57"/>
    <rect class="cls-1" x="69.5" y="22.56" width="1.56" height="1.56"/>
    <rect class="cls-1" x="66.69" y="28.5" width="1.56" height="1.56"/>
    <rect class="cls-1" x="79.98" y="13.36" width="1.56" height="1.56"/>
    <rect class="cls-1" x="57.93" y="13.39" width="1.57" height="1.56"/>
    <rect class="cls-1" x="69.5" y="25.02" width="2.45" height="2.45"/>
    <rect class="cls-5" x="21.75" y="36.36" width="3.79" height="3.79" transform="translate(-20.12 27.92) rotate(-45)"/>
    <rect class="cls-5" x="27" y="14" width="5.02" height="5.02" transform="translate(-3.04 25.7) rotate(-45)"/>
    <rect class="cls-5" x="28.96" y="55.34" width="3.79" height="3.79" transform="translate(-31.43 38.58) rotate(-45)"/>
    <rect class="cls-5" x="32.51" y="74.86" width="3.79" height="3.79" transform="translate(-44.2 46.81) rotate(-45)"/>
    <rect class="cls-5" x="52.89" y="96.43" width="3.79" height="3.79" transform="translate(-53.48 67.54) rotate(-45)"/>
    <rect class="cls-5" x="70.91" y="98.63" width="3.79" height="3.79" transform="translate(-49.76 80.93) rotate(-45)"/>
    <rect class="cls-5" x="79.68" y="107.21" width="3.79" height="3.79" transform="translate(-53.25 89.64) rotate(-45)"/>
    <rect class="cls-5" x="87.12" y="103.77" width="3.79" height="3.79" transform="translate(-48.65 93.9) rotate(-45)"/>
    <rect class="cls-5" x="75.39" y="116.55" width="3.79" height="3.79" transform="translate(-61.12 89.35) rotate(-45)"/>
    <rect class="cls-5" x="70.92" y="113.55" width="2.09" height="2.09"/>
    <rect class="cls-5" x="39.26" y="64.49" width="3.79" height="3.79" transform="translate(-34.89 48.55) rotate(-45)"/>
    <rect class="cls-5" x="80.64" y="120.17" width="3.79" height="3.79" transform="translate(-62.14 94.11) rotate(-45)"/>
    <rect class="cls-1" x="70.28" y="50.84" width="3.79" height="3.79"/>
    <rect class="cls-1" x="74.57" y="40.44" width="3.79" height="3.79"/>
    <rect class="cls-1" x="63.22" y="31.29" width="3.79" height="3.79"/>
    <rect class="cls-1" x="63.43" y="13.18" width="3.79" height="3.79"/>
    <rect class="cls-1" x="43.69" y="84.87" width="5.76" height="5.76" transform="translate(-48.41 58.62) rotate(-45)"/>
    <rect class="cls-1" x="63.64" y="58.95" width="5.76" height="5.76" transform="translate(-24.23 65.14) rotate(-45)"/>
    <rect class="cls-1" x="63.64" y="42.36" width="5.76" height="5.76" transform="translate(-12.5 60.28) rotate(-45)"/>
    <rect class="cls-1" x="12.37" y="116.36" width="5.52" height="5.52" transform="translate(-79.8 45.58) rotate(-45)"/>
    <rect class="cls-1" x="10.29" y="106.94" width="5.52" height="5.52"/>
    <rect class="cls-1" x="1.01" y="111.41" width="4.02" height="4.02"/>
    <rect class="cls-1" x="23.13" y="107.4" width="4.02" height="4.02"/>
    <rect class="cls-1" x="51.68" y="82.19" width="4.02" height="4.02"/>
    <rect class="cls-2" x="21.01" y="107.85" width="1.37" height="1.37"/>
    <rect class="cls-2" x="42.09" y="94.59" width="1.37" height="1.37"/>
    <rect class="cls-2" x="41.71" y="89.78" width="1.37" height="1.37"/>
    <rect class="cls-2" x="85.14" y="42.82" width="2.42" height="2.42"/>
    <rect class="cls-2" x="85.14" y="28.33" width="2.42" height="2.42"/>
    <rect class="cls-2" x="18.08" y="103.53" width="1.37" height="1.37"/>
    <rect class="cls-2" x="26.09" y="102.99" width="1.37" height="1.37"/>
    <rect class="cls-2" x="48.05" y="83.63" width="1.37" height="1.37"/>
    <rect class="cls-2" x="12.43" y="122.19" width="1.37" height="1.37"/>
    <rect class="cls-2" x="11.35" y="123.78" width="1.37" height="1.37"/>
    <rect class="cls-2" x="6.95" y="116.09" width="1.37" height="1.37"/>
    <rect class="cls-2" x="17.11" y="112.77" width="1.37" height="1.37"/>
    <rect class="cls-2" x="18.43" y="116.7" width="1.37" height="1.37"/>
    <rect class="cls-2" x="20.43" y="104.94" width="1.37" height="1.37" transform="translate(-68.5 45.87) rotate(-45)"/>
    <rect class="cls-2" x="46.94" y="81.48" width="1.37" height="1.37" transform="translate(-44.15 57.74) rotate(-45)"/>
    <rect class="cls-2" x="58.49" y="66.75" width="1.37" height="1.37" transform="translate(-30.35 61.6) rotate(-45)"/>
    <rect class="cls-2" x="52.39" y="65.04" width="1.37" height="1.37" transform="translate(-30.93 56.78) rotate(-45)"/>
    <rect class="cls-2" x="32.77" y="103.56" width="1.37" height="1.37"/>
  </g>
  <g>
    <rect class="cls-4" x="500.77" y="46.86" width="7.99" height="6.59"/>
    <g>
      <path class="cls-3" d="M130.19,117.21c0,1.01-.99,2.51-3.39,2.51-1.11,0-2.14-.43-2.14-1.63,0-1.35,1.03-1.78,2.23-2,1.22-.21,2.59-.23,3.3-.75v1.86ZM133.15,119.61c-.23.08-.4.11-.56.11-.58,0-.58-.39-.58-1.24v-5.7c0-2.59-2.16-3.04-4.15-3.04-2.47,0-4.59.97-4.7,3.71h1.82c.09-1.63,1.22-2.1,2.77-2.1,1.16,0,2.47.26,2.47,1.84,0,1.37-1.72,1.24-3.73,1.63-1.89.37-3.75.9-3.75,3.41,0,2.21,1.65,3.1,3.66,3.1,1.54,0,2.9-.54,3.9-1.71,0,1.2.6,1.71,1.54,1.71.58,0,.99-.11,1.31-.3v-1.41ZM138.49,121.06h1.82v-15.3h-1.82v15.3ZM146.78,121.06h1.82v-15.3h-1.82v15.3ZM155.08,121.06h1.82v-11.08h-1.82v11.08ZM156.9,105.76h-1.82v2.23h1.82v-2.23ZM170.13,117.21c0,1.01-.99,2.51-3.39,2.51-1.11,0-2.14-.43-2.14-1.63,0-1.35,1.03-1.78,2.23-2,1.22-.21,2.59-.23,3.3-.75v1.86ZM173.08,119.61c-.23.08-.41.11-.56.11-.58,0-.58-.39-.58-1.24v-5.7c0-2.59-2.16-3.04-4.16-3.04-2.47,0-4.59.97-4.69,3.71h1.82c.09-1.63,1.22-2.1,2.77-2.1,1.16,0,2.47.26,2.47,1.84,0,1.37-1.72,1.24-3.73,1.63-1.89.37-3.75.9-3.75,3.41,0,2.21,1.65,3.1,3.66,3.1,1.54,0,2.9-.54,3.9-1.71,0,1.2.6,1.71,1.54,1.71.58,0,.99-.11,1.31-.3v-1.41ZM178.31,121.06h1.82v-6.26c0-1.99,1.07-3.47,3.28-3.47,1.39,0,2.25.88,2.25,2.23v7.5h1.82v-7.29c0-2.38-.9-4.05-3.81-4.05-1.59,0-2.83.64-3.6,2.01h-.04v-1.75h-1.71v11.08ZM192.87,121.06h9.34v-1.61h-7.07l6.77-8.23v-1.24h-8.62v1.61h6.26l-6.69,8.08v1.39ZM220.34,121.06h1.82v-9.47h2.14v-1.61h-2.14v-1.55c0-.97.51-1.24,1.39-1.24.32,0,.71.04,1.03.15v-1.58c-.34-.11-.83-.17-1.18-.17-1.99,0-3.06.94-3.06,2.74v1.65h-1.86v1.61h1.86v9.47ZM235.11,108.37h1.93v-2.23h-1.93v2.23ZM231.08,108.37h1.93v-2.23h-1.93v2.23ZM238.65,109.99h-1.82v6.26c0,1.99-1.07,3.47-3.28,3.47-1.39,0-2.25-.88-2.25-2.23v-7.5h-1.82v7.29c0,2.38.9,4.05,3.81,4.05,1.59,0,2.83-.64,3.6-2.01h.04v1.76h1.71v-11.08ZM244.86,121.06h1.82v-4.93c0-2.81,1.07-4.48,4.01-4.48v-1.93c-1.97-.06-3.19.82-4.07,2.59h-.04v-2.33h-1.71v11.08ZM266.9,117.57c.11,2.74,2.21,3.75,4.69,3.75,2.25,0,4.72-.85,4.72-3.49,0-2.14-1.8-2.74-3.62-3.15-1.69-.41-3.62-.63-3.62-1.93,0-1.11,1.26-1.41,2.36-1.41,1.2,0,2.45.45,2.57,1.86h1.82c-.15-2.7-2.1-3.47-4.54-3.47-1.93,0-4.13.92-4.13,3.15s1.82,2.72,3.62,3.13c1.82.41,3.62.64,3.62,2.06s-1.54,1.65-2.68,1.65c-1.5,0-2.92-.51-2.98-2.14h-1.82ZM289.51,117.55c-.32,1.44-1.37,2.17-2.87,2.17-2.42,0-3.52-1.72-3.45-3.65h8.29c.11-2.68-1.09-6.34-5.01-6.34-3.02,0-5.21,2.44-5.21,5.77.11,3.39,1.78,5.83,5.31,5.83,2.49,0,4.24-1.33,4.74-3.77h-1.8ZM283.19,114.46c.13-1.69,1.26-3.13,3.17-3.13,1.8,0,3.11,1.39,3.2,3.13h-6.37ZM297.01,121.06h1.82v-15.3h-1.82v15.3ZM307.73,106.66h-1.82v3.33h-1.88v1.61h1.88v7.05c0,2.04.75,2.42,2.64,2.42h1.39v-1.61h-.83c-1.14,0-1.37-.15-1.37-.99v-6.88h2.21v-1.61h-2.21v-3.33ZM323.14,117.55c-.32,1.44-1.37,2.17-2.87,2.17-2.42,0-3.51-1.72-3.45-3.65h8.3c.11-2.68-1.09-6.34-5.01-6.34-3.02,0-5.21,2.44-5.21,5.77.11,3.39,1.78,5.83,5.32,5.83,2.49,0,4.24-1.33,4.73-3.77h-1.8ZM316.81,114.46c.13-1.69,1.27-3.13,3.17-3.13,1.8,0,3.11,1.39,3.2,3.13h-6.37ZM330.54,121.06h1.82v-6.26c0-1.99,1.07-3.47,3.28-3.47,1.39,0,2.25.88,2.25,2.23v7.5h1.82v-7.29c0-2.38-.9-4.05-3.81-4.05-1.59,0-2.83.64-3.6,2.01h-.04v-1.75h-1.71v11.08ZM353.64,117.55c-.32,1.44-1.37,2.17-2.87,2.17-2.42,0-3.51-1.72-3.45-3.65h8.29c.11-2.68-1.09-6.34-5.01-6.34-3.02,0-5.21,2.44-5.21,5.77.11,3.39,1.78,5.83,5.31,5.83,2.49,0,4.24-1.33,4.74-3.77h-1.8ZM347.32,114.46c.13-1.69,1.26-3.13,3.17-3.13,1.8,0,3.11,1.39,3.19,3.13h-6.37ZM380.69,117.55c-.32,1.44-1.37,2.17-2.87,2.17-2.42,0-3.51-1.72-3.45-3.65h8.29c.11-2.68-1.09-6.34-5.01-6.34-3.02,0-5.2,2.44-5.2,5.77.1,3.39,1.78,5.83,5.31,5.83,2.49,0,4.24-1.33,4.73-3.77h-1.8ZM374.36,114.46c.13-1.69,1.26-3.13,3.17-3.13,1.8,0,3.11,1.39,3.2,3.13h-6.37ZM388.02,121.06h1.82v-4.93c0-2.81,1.07-4.48,4.01-4.48v-1.93c-1.97-.06-3.19.82-4.07,2.59h-.04v-2.33h-1.71v11.08ZM398.87,121.06h1.82v-4.2l1.71-1.58,3.79,5.78h2.32l-4.72-7.05,4.39-4.03h-2.44l-5.06,4.84v-9.07h-1.82v15.3ZM413.36,121.06h1.82v-4.93c0-2.81,1.07-4.48,4.01-4.48v-1.93c-1.97-.06-3.19.82-4.07,2.59h-.04v-2.33h-1.71v11.08ZM430.95,117.21c0,1.01-.99,2.51-3.39,2.51-1.12,0-2.15-.43-2.15-1.63,0-1.35,1.03-1.78,2.23-2,1.22-.21,2.6-.23,3.3-.75v1.86ZM433.91,119.61c-.24.08-.41.11-.56.11-.58,0-.58-.39-.58-1.24v-5.7c0-2.59-2.16-3.04-4.16-3.04-2.47,0-4.59.97-4.69,3.71h1.82c.08-1.63,1.22-2.1,2.77-2.1,1.16,0,2.47.26,2.47,1.84,0,1.37-1.72,1.24-3.73,1.63-1.89.37-3.75.9-3.75,3.41,0,2.21,1.65,3.1,3.66,3.1,1.55,0,2.9-.54,3.91-1.71,0,1.2.6,1.71,1.54,1.71.58,0,.99-.11,1.31-.3v-1.41ZM439.14,121.06h1.82v-6.26c0-1.99,1.07-3.47,3.28-3.47,1.39,0,2.25.88,2.25,2.23v7.5h1.82v-7.29c0-2.38-.9-4.05-3.81-4.05-1.59,0-2.83.64-3.6,2.01h-.04v-1.75h-1.71v11.08ZM454.7,121.06h1.82v-4.2l1.72-1.58,3.79,5.78h2.31l-4.72-7.05,4.39-4.03h-2.44l-5.06,4.84v-9.07h-1.82v15.3ZM478.43,109.99h-1.82v6.26c0,1.99-1.07,3.47-3.28,3.47-1.4,0-2.25-.88-2.25-2.23v-7.5h-1.82v7.29c0,2.38.9,4.05,3.81,4.05,1.59,0,2.83-.64,3.6-2.01h.04v1.76h1.71v-11.08ZM484.71,121.06h1.82v-6.26c0-1.99,1.07-3.47,3.28-3.47,1.39,0,2.25.88,2.25,2.23v7.5h1.82v-7.29c0-2.38-.9-4.05-3.81-4.05-1.59,0-2.83.64-3.6,2.01h-.04v-1.75h-1.71v11.08ZM504.62,119.59c-2.4,0-3.13-2.23-3.13-4.22,0-2.12.94-4.03,3.28-4.03s3.15,2.01,3.15,3.96c0,2.08-.9,4.29-3.3,4.29M509.73,109.99h-1.71v1.58h-.02c-.66-1.22-1.91-1.84-3.3-1.84-3.84,0-5.12,3.24-5.12,5.85,0,3.02,1.65,5.61,4.95,5.61,1.39,0,2.85-.66,3.45-2.01h.04v.73c0,2.48-.94,4.2-3.32,4.2-1.2,0-2.79-.47-2.88-1.8h-1.82c.11,2.42,2.5,3.26,4.58,3.26,3.5,0,5.15-1.84,5.15-5.44v-10.14ZM523.66,117.55c-.32,1.44-1.37,2.17-2.87,2.17-2.42,0-3.52-1.72-3.45-3.65h8.29c.11-2.68-1.09-6.34-5.01-6.34-3.03,0-5.21,2.44-5.21,5.77.11,3.39,1.78,5.83,5.32,5.83,2.49,0,4.24-1.33,4.73-3.77h-1.8ZM517.33,114.46c.13-1.69,1.26-3.13,3.17-3.13,1.8,0,3.11,1.39,3.19,3.13h-6.37ZM531.06,121.06h1.82v-6.26c0-1.99,1.07-3.47,3.28-3.47,1.39,0,2.25.88,2.25,2.23v7.5h1.82v-7.29c0-2.38-.9-4.05-3.81-4.05-1.59,0-2.83.64-3.6,2.01h-.04v-1.75h-1.71v11.08Z"/>
      <path class="cls-4" d="M178.1,70.17c0,9.22,5.91,15.3,15.02,15.3s15.08-6.08,15.08-15.3-5.91-15.36-15.08-15.36-15.02,6.07-15.02,15.36M186.09,70.17c0-4.67,1.63-9.34,7.03-9.34s7.09,4.67,7.09,9.34-1.63,9.28-7.09,9.28-7.03-4.67-7.03-9.28M233.53,84.68h7.99v-13.1c0-5.12,2.02-9.34,7.87-9.34.96,0,2.14.11,2.87.28v-7.43c-.51-.17-1.18-.28-1.74-.28-3.88,0-7.82,2.53-9.28,6.19h-.11v-5.4h-7.59v29.08ZM286.71,84.68h7.99v-13.1c0-5.12,2.02-9.34,7.87-9.34.96,0,2.14.11,2.87.28v-7.43c-.51-.17-1.18-.28-1.74-.28-3.88,0-7.82,2.53-9.28,6.19h-.11v-5.4h-7.59v29.08ZM377.15,73.43c0,1.74-.23,6.69-6.47,6.69-2.59,0-4.9-.73-4.9-3.71s2.25-3.77,4.73-4.28c2.48-.45,5.29-.51,6.64-1.69v2.98ZM366.69,64.54c.28-3.15,2.25-4.39,5.29-4.39,2.81,0,5.18.51,5.18,3.94s-4.56,3.09-9.45,3.82c-4.95.68-9.9,2.25-9.9,8.83,0,5.96,4.39,8.72,9.9,8.72,3.55,0,7.26-.95,9.79-3.6.06.95.28,1.91.56,2.81h8.1c-.73-1.18-1.01-3.82-1.01-6.47v-15.13c0-6.97-6.98-8.27-12.77-8.27-6.52,0-13.22,2.25-13.67,9.73h7.99ZM418.61,55.6h-7.99v15.24c0,5.9-1.86,8.33-6.19,8.33-3.71,0-5.12-2.36-5.12-7.14v-16.42h-7.99v17.89c0,7.2,2.14,11.98,10.63,11.98,3.38,0,6.86-1.57,8.89-4.84h.17v4.05h7.59v-29.08ZM423.28,75.23c.34,7.71,6.92,10.24,13.67,10.24s13.28-2.47,13.28-10.12c0-5.4-4.56-7.09-9.22-8.16-4.56-1.07-9.06-1.46-9.06-4.33,0-2.36,2.64-2.7,4.44-2.7,2.87,0,5.23.85,5.46,3.94h7.59c-.62-7.14-6.47-9.28-12.83-9.28s-12.66,1.91-12.66,9.34c0,5.12,4.61,6.75,9.23,7.76,5.73,1.24,9.05,2.08,9.05,4.5,0,2.81-2.93,3.71-5.23,3.71-3.15,0-6.08-1.4-6.13-4.89h-7.59ZM477.67,84.68h7.99v-13.1c0-5.12,2.02-9.34,7.88-9.34.95,0,2.14.11,2.87.28v-7.43c-.51-.17-1.18-.28-1.74-.28-3.88,0-7.82,2.53-9.28,6.19h-.11v-5.4h-7.59v29.08ZM500.77,84.68h7.99v-29.08h-7.99v29.08ZM533.17,73.43c0,1.74-.23,6.69-6.47,6.69-2.59,0-4.89-.73-4.89-3.71s2.25-3.77,4.72-4.28c2.48-.45,5.29-.51,6.64-1.69v2.98ZM522.71,64.54c.28-3.15,2.25-4.39,5.29-4.39,2.81,0,5.18.51,5.18,3.94s-4.56,3.09-9.45,3.82c-4.95.68-9.9,2.25-9.9,8.83,0,5.96,4.39,8.72,9.9,8.72,3.55,0,7.26-.95,9.79-3.6.06.95.28,1.91.56,2.81h8.1c-.73-1.18-1.01-3.82-1.01-6.47v-15.13c0-6.97-6.98-8.27-12.77-8.27-6.52,0-13.22,2.25-13.67,9.73h7.99Z"/>
      <path class="cls-4" d="M273.35,73.36c0,1.74-.23,6.69-6.47,6.69-2.59,0-4.89-.73-4.89-3.71s2.25-3.77,4.72-4.27c2.48-.45,5.29-.51,6.64-1.69v2.98ZM262.89,64.47c.28-3.15,2.25-4.39,5.29-4.39,2.81,0,5.18.51,5.18,3.94s-4.56,3.09-9.45,3.82c-4.95.68-9.9,2.25-9.9,8.83,0,5.96,4.39,8.72,9.9,8.72,3.54,0,7.26-.95,9.79-3.6.06.95.28,1.91.56,2.81h8.1c-.73-1.18-1.01-3.82-1.01-6.47v-15.13c0-6.97-6.98-8.27-12.77-8.27-6.52,0-13.22,2.25-13.67,9.73h7.99Z"/>
      <path class="cls-4" d="M307.07,71.65c-.56-8.94,4.22-17.27,14.12-17.27,8.83,0,14.85,6.64,14.85,15.36s-5.68,15.3-14.85,15.3c-6.58,0-11.36-2.93-13.61-9.79h7.03c.51,1.8,3.1,3.77,6.3,3.77,4.44,0,6.92-2.31,7.14-7.37h-20.98ZM328.05,66.59c-.11-2.25-1.57-6.19-6.64-6.19-3.88,0-5.63,2.14-6.35,6.19h12.99Z"/>
      <path class="cls-4" d="M122.73,94.85h7.99v-13.84h.11c1.91,2.87,5.23,4.39,8.72,4.39,8.49,0,12.77-7.26,12.77-15.02,0-8.27-4.1-15.64-13.22-15.64-3.6,0-6.75,1.41-8.66,4.5h-.11v-3.71h-7.59v39.32ZM137.42,79.38c-5.18,0-6.98-4.5-6.98-9.22s1.69-9.39,6.92-9.39,6.97,4.78,6.97,9.39-1.69,9.22-6.92,9.22"/>
      <path class="cls-4" d="M173.08,85.01h-7.99v-13.11c0-5.12-2.02-9.34-7.88-9.34-.95,0-2.14.11-2.87.28v-7.42c.51-.17,1.18-.28,1.74-.28,3.88,0,7.82,2.53,9.28,6.19h.11v-5.4h7.59v29.08Z"/>
      <path class="cls-4" d="M460.04,46.87h7.99v8.72h4.84v5.34h-4.84v17.16c0,5.79-4.27,6.92-9.17,6.92-1.57,0-3.32-.06-4.67-.28v-6.25c.85.17,1.63.23,2.48.23,2.7,0,3.38-.68,3.38-3.38v-14.4h-5.85v-5.34h5.85v-8.72Z"/>
    </g>
  </g>
  <g>
    <path class="cls-1" d="M126.16,27.08c.14.24.32.44.54.59.22.15.47.27.76.34s.58.11.89.11c.22,0,.45-.03.69-.08.24-.05.46-.13.66-.24.2-.11.36-.26.5-.44s.2-.41.2-.69c0-.47-.31-.82-.93-1.06s-1.49-.47-2.61-.7c-.45-.1-.9-.22-1.33-.36-.43-.14-.82-.32-1.16-.55-.34-.23-.61-.51-.81-.86s-.31-.77-.31-1.27c0-.73.14-1.33.43-1.8.29-.47.66-.84,1.13-1.11.47-.27,1-.46,1.58-.57.59-.11,1.19-.17,1.8-.17s1.21.06,1.79.18c.58.12,1.1.32,1.55.59.45.28.83.65,1.13,1.11s.48,1.04.54,1.75h-2.97c-.04-.6-.27-1.01-.68-1.22-.41-.21-.89-.32-1.45-.32-.18,0-.37.01-.57.03-.21.02-.39.07-.56.14-.17.07-.31.18-.43.32s-.18.33-.18.56c0,.28.1.51.31.68.21.18.47.32.8.43.33.11.71.21,1.13.3.42.09.86.18,1.3.29.45.1.9.23,1.33.37s.82.34,1.16.58c.34.24.61.54.81.9.21.36.31.8.31,1.33,0,.75-.15,1.38-.45,1.88-.3.51-.69.91-1.18,1.22-.48.31-1.04.52-1.66.65-.62.12-1.26.19-1.9.19s-1.31-.07-1.94-.2-1.19-.35-1.68-.66c-.49-.31-.89-.71-1.21-1.22s-.49-1.14-.52-1.9h2.97c0,.34.07.63.21.87Z"/>
    <path class="cls-1" d="M139.13,27.18c.47.45,1.14.68,2.02.68.63,0,1.17-.16,1.63-.47s.73-.65.84-1h2.75c-.44,1.36-1.11,2.34-2.02,2.93-.91.59-2.01.88-3.3.88-.89,0-1.7-.14-2.42-.43-.72-.29-1.33-.69-1.83-1.22-.5-.53-.88-1.16-1.16-1.89s-.41-1.54-.41-2.42.14-1.64.42-2.38.67-1.37,1.19-1.9c.51-.54,1.12-.96,1.84-1.26.71-.31,1.5-.46,2.36-.46.97,0,1.81.19,2.53.56s1.31.88,1.77,1.51c.46.63.79,1.35,1,2.16.21.81.28,1.65.22,2.53h-8.21c.04,1.01.3,1.75.77,2.2ZM142.66,21.2c-.37-.41-.94-.62-1.71-.62-.5,0-.91.08-1.24.25-.33.17-.59.38-.79.63-.2.25-.34.51-.42.79-.08.28-.13.53-.14.75h5.08c-.15-.79-.41-1.39-.78-1.8Z"/>
    <path class="cls-1" d="M152.06,14.2v15.71h-3.12v-15.71h3.12Z"/>
    <path class="cls-1" d="M161.21,18.54v2.09h-2.29v5.63c0,.53.09.88.26,1.06s.53.26,1.06.26c.18,0,.34,0,.51-.02s.32-.04.46-.07v2.42c-.26.04-.56.07-.88.09s-.64.02-.95.02c-.48,0-.94-.03-1.38-.1-.43-.07-.81-.19-1.14-.38s-.59-.46-.78-.81c-.19-.35-.29-.81-.29-1.39v-6.71h-1.89v-2.09h1.89v-3.41h3.12v3.41h2.29Z"/>
    <path class="cls-1" d="M166.49,27.18c.47.45,1.14.68,2.02.68.63,0,1.17-.16,1.63-.47s.73-.65.84-1h2.75c-.44,1.36-1.11,2.34-2.02,2.93-.91.59-2.01.88-3.3.88-.89,0-1.7-.14-2.42-.43-.72-.29-1.33-.69-1.83-1.22-.5-.53-.88-1.16-1.16-1.89s-.41-1.54-.41-2.42.14-1.64.42-2.38.67-1.37,1.19-1.9c.51-.54,1.12-.96,1.84-1.26.71-.31,1.5-.46,2.36-.46.97,0,1.81.19,2.53.56s1.31.88,1.77,1.51c.46.63.79,1.35,1,2.16.21.81.28,1.65.22,2.53h-8.21c.04,1.01.3,1.75.77,2.2ZM170.02,21.2c-.37-.41-.94-.62-1.71-.62-.5,0-.91.08-1.24.25-.33.17-.59.38-.79.63-.2.25-.34.51-.42.79-.08.28-.13.53-.14.75h5.08c-.15-.79-.41-1.39-.78-1.8Z"/>
    <path class="cls-1" d="M179.19,18.54v1.58h.07c.4-.66.91-1.14,1.54-1.44.63-.3,1.28-.45,1.94-.45.84,0,1.52.11,2.06.34s.96.54,1.26.95c.31.4.52.89.65,1.47.12.58.19,1.22.19,1.92v7h-3.12v-6.42c0-.94-.15-1.64-.44-2.1-.29-.46-.81-.69-1.56-.69-.85,0-1.47.25-1.85.76-.38.51-.57,1.34-.57,2.5v5.96h-3.12v-11.37h2.97Z"/>
    <path class="cls-1" d="M199.08,29.91l-3.89-11.37h3.28l2.4,7.77h.04l2.4-7.77h3.1l-3.85,11.37h-3.48Z"/>
    <path class="cls-1" d="M211.48,27.18c.47.45,1.14.68,2.02.68.63,0,1.17-.16,1.63-.47s.73-.65.84-1h2.75c-.44,1.36-1.11,2.34-2.02,2.93-.91.59-2.01.88-3.3.88-.89,0-1.7-.14-2.42-.43-.72-.29-1.33-.69-1.83-1.22-.5-.53-.88-1.16-1.16-1.89s-.41-1.54-.41-2.42.14-1.64.42-2.38.67-1.37,1.19-1.9c.51-.54,1.12-.96,1.84-1.26.71-.31,1.5-.46,2.36-.46.97,0,1.81.19,2.53.56s1.31.88,1.77,1.51c.46.63.79,1.35,1,2.16.21.81.28,1.65.22,2.53h-8.21c.04,1.01.3,1.75.77,2.2ZM215.01,21.2c-.37-.41-.94-.62-1.71-.62-.5,0-.91.08-1.24.25-.33.17-.59.38-.79.63-.2.25-.34.51-.42.79-.08.28-.13.53-.14.75h5.08c-.15-.79-.41-1.39-.78-1.8Z"/>
    <path class="cls-1" d="M224.18,18.54v2.11h.04c.15-.35.34-.68.59-.98.25-.3.54-.56.86-.77.32-.21.67-.38,1.03-.5.37-.12.75-.18,1.14-.18.21,0,.43.04.68.11v2.9c-.15-.03-.32-.05-.53-.08-.21-.02-.4-.03-.59-.03-.57,0-1.06.1-1.45.29-.4.19-.71.45-.96.78s-.42.71-.52,1.16c-.1.44-.15.92-.15,1.43v5.13h-3.12v-11.37h2.97Z"/>
    <path class="cls-1" d="M233.33,14.2v5.72h.04c.38-.59.9-1.02,1.55-1.29.65-.27,1.33-.41,2.03-.41.57,0,1.14.12,1.69.35s1.06.59,1.51,1.08.81,1.1,1.09,1.86c.28.75.42,1.65.42,2.69s-.14,1.94-.42,2.7c-.28.76-.64,1.38-1.09,1.86-.45.48-.95.84-1.51,1.08s-1.12.35-1.69.35c-.84,0-1.58-.13-2.24-.4-.66-.26-1.16-.71-1.5-1.34h-.04v1.45h-2.97v-15.71h3.12ZM238.39,22.85c-.1-.44-.26-.83-.48-1.17-.22-.34-.5-.61-.83-.8-.33-.2-.73-.3-1.2-.3s-.85.1-1.19.3c-.34.2-.62.47-.84.8-.22.34-.38.73-.48,1.17-.1.44-.15.9-.15,1.39s.05.92.15,1.36c.1.44.26.83.48,1.17.22.34.5.61.84.8.34.2.73.3,1.19.3s.87-.1,1.2-.3.61-.47.83-.8c.22-.34.38-.73.48-1.17.1-.44.15-.89.15-1.36s-.05-.95-.15-1.39Z"/>
    <path class="cls-1" d="M244.17,16.78v-2.57h3.12v2.57h-3.12ZM247.3,18.54v11.37h-3.12v-11.37h3.12Z"/>
    <path class="cls-1" d="M253.17,18.54v1.58h.07c.4-.66.91-1.14,1.54-1.44.63-.3,1.28-.45,1.94-.45.84,0,1.52.11,2.06.34s.96.54,1.27.95c.31.4.52.89.65,1.47.12.58.19,1.22.19,1.92v7h-3.12v-6.42c0-.94-.15-1.64-.44-2.1-.29-.46-.81-.69-1.56-.69-.85,0-1.47.25-1.85.76-.38.51-.57,1.34-.57,2.5v5.96h-3.12v-11.37h2.97Z"/>
    <path class="cls-1" d="M271.76,28.46c-.37.62-.85,1.06-1.44,1.33s-1.26.41-2.01.41c-.85,0-1.6-.17-2.24-.5-.65-.33-1.18-.78-1.59-1.34-.42-.56-.73-1.21-.95-1.95-.21-.73-.32-1.5-.32-2.29s.11-1.5.32-2.21c.21-.71.53-1.34.95-1.88.42-.54.94-.98,1.57-1.31.63-.33,1.36-.5,2.2-.5.67,0,1.32.14,1.92.43s1.09.71,1.44,1.26h.04v-5.72h3.12v15.71h-2.97v-1.45h-.04ZM271.63,22.84c-.09-.43-.24-.81-.45-1.14-.21-.33-.49-.6-.83-.8-.34-.21-.76-.31-1.28-.31s-.95.1-1.3.31c-.35.21-.63.48-.85.81-.21.34-.37.72-.46,1.16-.1.43-.14.88-.14,1.35,0,.44.05.88.15,1.32.1.44.27.83.5,1.18.23.34.51.62.86.84.34.21.76.32,1.24.32.51,0,.94-.1,1.29-.31.34-.21.62-.48.83-.83.21-.34.35-.74.44-1.18.09-.44.13-.89.13-1.36s-.04-.92-.13-1.35Z"/>
    <path class="cls-1" d="M280.91,27.18c.47.45,1.14.68,2.02.68.63,0,1.17-.16,1.63-.47.46-.32.73-.65.84-1h2.75c-.44,1.36-1.11,2.34-2.02,2.93s-2.01.88-3.3.88c-.89,0-1.7-.14-2.42-.43-.72-.29-1.33-.69-1.83-1.22-.5-.53-.88-1.16-1.16-1.89s-.41-1.54-.41-2.42.14-1.64.42-2.38c.28-.73.67-1.37,1.19-1.9s1.13-.96,1.84-1.26c.71-.31,1.5-.46,2.36-.46.97,0,1.81.19,2.53.56s1.31.88,1.77,1.51c.46.63.79,1.35,1,2.16.21.81.28,1.65.22,2.53h-8.21c.04,1.01.3,1.75.77,2.2ZM284.45,21.2c-.37-.41-.94-.62-1.71-.62-.5,0-.91.08-1.24.25-.33.17-.59.38-.79.63-.2.25-.34.51-.42.79-.08.28-.13.53-.14.75h5.08c-.15-.79-.41-1.39-.78-1.8Z"/>
    <path class="cls-1" d="M296.89,18.54v2.09h-2.29v5.63c0,.53.09.88.26,1.06.18.18.53.26,1.06.26.18,0,.34,0,.51-.02s.32-.04.46-.07v2.42c-.26.04-.56.07-.88.09-.32.01-.64.02-.95.02-.48,0-.94-.03-1.38-.1-.43-.07-.81-.19-1.14-.38s-.59-.46-.78-.81c-.19-.35-.29-.81-.29-1.39v-6.71h-1.89v-2.09h1.89v-3.41h3.12v3.41h2.29Z"/>
    <path class="cls-1" d="M302.41,26.52v3.39h-3.45v-3.39h3.45Z"/>
    <path class="cls-1" d="M322.68,30.75c-.12.59-.39,1.13-.8,1.64-.41.51-1,.94-1.78,1.29-.78.35-1.82.53-3.12.53-.56,0-1.12-.07-1.7-.21-.58-.14-1.11-.36-1.58-.65-.48-.29-.87-.67-1.19-1.13s-.5-1.02-.54-1.66h3.1c.15.59.43.99.86,1.22.43.23.92.34,1.47.34.88,0,1.52-.26,1.93-.79.4-.53.6-1.2.58-2v-1.5h-.04c-.34.6-.82,1.04-1.44,1.33-.62.29-1.28.43-1.97.43-.85,0-1.58-.15-2.2-.45-.62-.3-1.12-.71-1.52-1.23-.4-.52-.69-1.13-.87-1.83-.18-.7-.28-1.43-.28-2.21,0-.73.11-1.44.32-2.12.21-.68.52-1.28.93-1.8s.92-.94,1.53-1.24c.61-.31,1.31-.46,2.1-.46.75,0,1.4.14,1.97.42.56.28,1.04.75,1.42,1.41h.04v-1.52h2.97v10.65c0,.45-.06.97-.19,1.56ZM318.4,26.96c.34-.18.62-.41.84-.7.22-.29.38-.63.5-1,.11-.37.17-.77.17-1.18,0-.47-.04-.91-.13-1.33-.09-.42-.23-.79-.44-1.11-.21-.32-.48-.58-.81-.77-.34-.19-.76-.29-1.28-.29-.44,0-.82.09-1.13.26-.32.18-.58.42-.79.72-.21.3-.37.65-.46,1.03-.09.39-.14.8-.14,1.22s.04.82.12,1.22c.08.4.22.77.42,1.09.2.32.46.59.78.79.32.21.73.31,1.21.31.44,0,.83-.09,1.17-.26Z"/>
    <path class="cls-1" d="M329.16,27.18c.47.45,1.14.68,2.02.68.63,0,1.17-.16,1.63-.47.46-.32.73-.65.84-1h2.75c-.44,1.36-1.11,2.34-2.02,2.93s-2.01.88-3.3.88c-.9,0-1.7-.14-2.42-.43-.72-.29-1.33-.69-1.83-1.22-.5-.53-.88-1.16-1.16-1.89s-.41-1.54-.41-2.42.14-1.64.42-2.38.67-1.37,1.19-1.9c.51-.54,1.12-.96,1.84-1.26.71-.31,1.5-.46,2.37-.46.97,0,1.81.19,2.53.56s1.31.88,1.77,1.51c.46.63.79,1.35,1,2.16.21.81.28,1.65.22,2.53h-8.21c.04,1.01.3,1.75.77,2.2ZM332.69,21.2c-.37-.41-.94-.62-1.71-.62-.5,0-.91.08-1.24.25-.33.17-.59.38-.79.63-.2.25-.34.51-.42.79-.08.28-.13.53-.14.75h5.08c-.15-.79-.41-1.39-.78-1.8Z"/>
    <path class="cls-1" d="M341.92,18.54v1.54h.04c.41-.59.91-1.04,1.49-1.36.58-.32,1.24-.48,1.99-.48s1.38.14,1.97.42,1.04.77,1.35,1.47c.34-.5.79-.94,1.38-1.32.58-.38,1.26-.57,2.06-.57.6,0,1.16.07,1.67.22s.95.38,1.32.7c.37.32.65.74.86,1.26s.31,1.15.31,1.88v7.61h-3.12v-6.45c0-.38-.01-.74-.04-1.08-.03-.34-.11-.63-.24-.88-.13-.25-.33-.45-.58-.59s-.61-.22-1.04-.22-.8.08-1.07.25-.48.39-.64.66-.26.58-.31.92c-.05.34-.08.69-.08,1.04v6.34h-3.12v-6.38c0-.34,0-.67-.02-1s-.08-.63-.19-.91c-.11-.28-.29-.5-.55-.67-.26-.17-.63-.25-1.13-.25-.15,0-.34.03-.58.1-.24.07-.48.19-.7.37-.23.18-.42.45-.58.79s-.24.8-.24,1.35v6.6h-3.12v-11.37h2.95Z"/>
    <path class="cls-1" d="M362.6,27.18c.47.45,1.14.68,2.02.68.63,0,1.17-.16,1.63-.47.46-.32.73-.65.84-1h2.75c-.44,1.36-1.11,2.34-2.02,2.93s-2.01.88-3.3.88c-.9,0-1.7-.14-2.42-.43-.72-.29-1.33-.69-1.83-1.22-.5-.53-.88-1.16-1.16-1.89s-.41-1.54-.41-2.42.14-1.64.42-2.38.67-1.37,1.19-1.9c.51-.54,1.12-.96,1.84-1.26.71-.31,1.5-.46,2.37-.46.97,0,1.81.19,2.53.56s1.31.88,1.77,1.51c.46.63.79,1.35,1,2.16.21.81.28,1.65.22,2.53h-8.21c.04,1.01.3,1.75.77,2.2ZM366.13,21.2c-.37-.41-.94-.62-1.71-.62-.5,0-.91.08-1.24.25-.33.17-.59.38-.79.63-.2.25-.34.51-.42.79-.08.28-.13.53-.14.75h5.08c-.15-.79-.41-1.39-.78-1.8Z"/>
    <path class="cls-1" d="M372.41,16.78v-2.57h3.12v2.57h-3.12ZM375.54,18.54v11.37h-3.12v-11.37h3.12Z"/>
    <path class="cls-1" d="M381.41,18.54v1.58h.07c.4-.66.91-1.14,1.54-1.44.63-.3,1.28-.45,1.94-.45.84,0,1.52.11,2.06.34s.96.54,1.27.95c.31.4.52.89.65,1.47s.19,1.22.19,1.92v7h-3.12v-6.42c0-.94-.15-1.64-.44-2.1-.29-.46-.81-.69-1.56-.69-.85,0-1.47.25-1.85.76s-.57,1.34-.57,2.5v5.96h-3.12v-11.37h2.97Z"/>
    <path class="cls-1" d="M394.55,27.08c.14.24.32.44.54.59.22.15.47.27.76.34s.58.11.89.11c.22,0,.45-.03.69-.08.24-.05.46-.13.66-.24.2-.11.36-.26.49-.44.13-.18.2-.41.2-.69,0-.47-.31-.82-.93-1.06-.62-.23-1.49-.47-2.61-.7-.45-.1-.9-.22-1.33-.36-.43-.14-.82-.32-1.15-.55-.34-.23-.61-.51-.81-.86s-.31-.77-.31-1.27c0-.73.14-1.33.43-1.8.29-.47.66-.84,1.13-1.11.47-.27,1-.46,1.58-.57.59-.11,1.19-.17,1.8-.17s1.21.06,1.79.18c.58.12,1.1.32,1.55.59.45.28.83.65,1.13,1.11s.48,1.04.54,1.75h-2.97c-.04-.6-.27-1.01-.68-1.22-.41-.21-.89-.32-1.45-.32-.18,0-.37.01-.57.03-.21.02-.39.07-.56.14s-.31.18-.43.32c-.12.14-.18.33-.18.56,0,.28.1.51.31.68.21.18.47.32.8.43.33.11.71.21,1.13.3.43.09.86.18,1.3.29.45.1.9.23,1.33.37.43.15.82.34,1.15.58.34.24.61.54.81.9.21.36.31.8.31,1.33,0,.75-.15,1.38-.45,1.88-.3.51-.69.91-1.18,1.22-.48.31-1.04.52-1.66.65-.62.12-1.26.19-1.9.19s-1.31-.07-1.94-.2-1.19-.35-1.68-.66c-.49-.31-.89-.71-1.21-1.22s-.49-1.14-.52-1.9h2.97c0,.34.07.63.21.87Z"/>
    <path class="cls-1" d="M404.05,22.04c.04-.73.23-1.34.55-1.83.32-.48.73-.87,1.23-1.17.5-.29,1.06-.5,1.68-.63.62-.12,1.25-.19,1.88-.19.57,0,1.15.04,1.74.12.59.08,1.12.24,1.61.47s.88.56,1.19.98c.31.42.46.97.46,1.66v5.92c0,.51.03,1,.09,1.47.06.47.16.82.31,1.06h-3.17c-.06-.18-.11-.36-.14-.54-.04-.18-.06-.37-.08-.56-.5.51-1.09.87-1.76,1.08-.67.21-1.36.31-2.07.31-.54,0-1.05-.07-1.52-.2-.47-.13-.88-.34-1.23-.62-.35-.28-.63-.63-.83-1.06-.2-.42-.3-.93-.3-1.52,0-.65.11-1.18.34-1.6s.52-.75.88-1c.36-.25.77-.44,1.23-.56s.93-.22,1.4-.3.93-.13,1.39-.18c.45-.04.86-.11,1.21-.2.35-.09.63-.22.84-.39.21-.17.3-.41.29-.74,0-.34-.06-.61-.17-.8-.11-.2-.26-.35-.44-.46-.18-.11-.4-.18-.64-.22-.24-.04-.5-.05-.78-.05-.62,0-1.1.13-1.45.4-.35.26-.56.7-.62,1.32h-3.12ZM411.26,24.34c-.13.12-.3.21-.5.28-.2.07-.41.12-.64.17s-.47.08-.71.11-.5.07-.75.11c-.23.04-.47.1-.69.18-.23.07-.43.17-.59.3-.17.12-.3.28-.41.47-.1.19-.15.43-.15.73s.05.51.15.7c.1.19.24.34.42.45.18.11.38.19.62.23s.48.07.73.07c.62,0,1.09-.1,1.43-.31.34-.21.59-.45.75-.74s.26-.58.3-.87c.04-.29.06-.53.06-.7v-1.17Z"/>
    <path class="cls-1" d="M420.28,18.54v1.54h.04c.41-.59.91-1.04,1.49-1.36.58-.32,1.24-.48,1.99-.48s1.38.14,1.97.42,1.04.77,1.35,1.47c.34-.5.79-.94,1.38-1.32.58-.38,1.26-.57,2.06-.57.6,0,1.16.07,1.67.22s.95.38,1.32.7c.37.32.65.74.86,1.26s.31,1.15.31,1.88v7.61h-3.12v-6.45c0-.38-.01-.74-.04-1.08-.03-.34-.11-.63-.24-.88-.13-.25-.33-.45-.58-.59s-.61-.22-1.04-.22-.8.08-1.07.25-.48.39-.64.66-.26.58-.31.92c-.05.34-.08.69-.08,1.04v6.34h-3.12v-6.38c0-.34,0-.67-.02-1s-.08-.63-.19-.91c-.11-.28-.29-.5-.55-.67-.26-.17-.63-.25-1.13-.25-.15,0-.34.03-.58.1-.24.07-.48.19-.7.37-.23.18-.42.45-.58.79s-.24.8-.24,1.35v6.6h-3.12v-11.37h2.95Z"/>
    <path class="cls-1" d="M447.3,14.2v5.72h.04c.38-.59.9-1.02,1.55-1.29.65-.27,1.33-.41,2.04-.41.57,0,1.14.12,1.69.35s1.06.59,1.51,1.08.81,1.1,1.09,1.86c.28.75.42,1.65.42,2.69s-.14,1.94-.42,2.7c-.28.76-.64,1.38-1.09,1.86-.45.48-.95.84-1.51,1.08s-1.12.35-1.69.35c-.84,0-1.58-.13-2.24-.4-.66-.26-1.16-.71-1.5-1.34h-.04v1.45h-2.97v-15.71h3.12ZM452.36,22.85c-.1-.44-.26-.83-.48-1.17-.22-.34-.5-.61-.82-.8-.33-.2-.73-.3-1.2-.3s-.85.1-1.19.3c-.34.2-.62.47-.84.8-.22.34-.38.73-.48,1.17-.1.44-.15.9-.15,1.39s.05.92.15,1.36c.1.44.26.83.48,1.17.22.34.5.61.84.8.34.2.73.3,1.19.3s.87-.1,1.2-.3c.33-.2.6-.47.82-.8.22-.34.38-.73.48-1.17.1-.44.15-.89.15-1.36s-.05-.95-.15-1.39Z"/>
    <path class="cls-1" d="M461.4,27.18c.47.45,1.14.68,2.02.68.63,0,1.17-.16,1.63-.47.46-.32.73-.65.84-1h2.75c-.44,1.36-1.11,2.34-2.02,2.93s-2.01.88-3.3.88c-.9,0-1.7-.14-2.42-.43-.72-.29-1.33-.69-1.83-1.22-.5-.53-.88-1.16-1.16-1.89s-.41-1.54-.41-2.42.14-1.64.42-2.38.67-1.37,1.19-1.9c.51-.54,1.12-.96,1.84-1.26.71-.31,1.5-.46,2.37-.46.97,0,1.81.19,2.53.56s1.31.88,1.77,1.51c.46.63.79,1.35,1,2.16.21.81.28,1.65.22,2.53h-8.21c.04,1.01.3,1.75.77,2.2ZM464.93,21.2c-.37-.41-.94-.62-1.71-.62-.5,0-.91.08-1.24.25-.33.17-.59.38-.79.63-.2.25-.34.51-.42.79-.08.28-.13.53-.14.75h5.08c-.15-.79-.41-1.39-.78-1.8Z"/>
    <path class="cls-1" d="M480.91,29.91l-2.02-7.63h-.04l-1.94,7.63h-3.23l-3.61-11.37h3.3l2.09,7.72h.04l1.89-7.72h3.04l1.94,7.7h.04l2.09-7.7h3.21l-3.59,11.37h-3.21Z"/>
    <path class="cls-1" d="M492.82,27.18c.47.45,1.14.68,2.02.68.63,0,1.17-.16,1.63-.47.46-.32.73-.65.84-1h2.75c-.44,1.36-1.11,2.34-2.02,2.93s-2.01.88-3.3.88c-.9,0-1.7-.14-2.42-.43-.72-.29-1.33-.69-1.83-1.22-.5-.53-.88-1.16-1.16-1.89s-.41-1.54-.41-2.42.14-1.64.42-2.38.67-1.37,1.19-1.9c.51-.54,1.12-.96,1.84-1.26.71-.31,1.5-.46,2.37-.46.97,0,1.81.19,2.53.56s1.31.88,1.77,1.51c.46.63.79,1.35,1,2.16.21.81.28,1.65.22,2.53h-8.21c.04,1.01.3,1.75.77,2.2ZM496.35,21.2c-.37-.41-.94-.62-1.71-.62-.5,0-.91.08-1.24.25-.33.17-.59.38-.79.63-.2.25-.34.51-.42.79-.08.28-.13.53-.14.75h5.08c-.15-.79-.41-1.39-.78-1.8Z"/>
    <path class="cls-1" d="M513.29,30.75c-.12.59-.39,1.13-.8,1.64-.41.51-1,.94-1.78,1.29-.78.35-1.82.53-3.12.53-.56,0-1.12-.07-1.7-.21-.58-.14-1.11-.36-1.58-.65-.48-.29-.87-.67-1.19-1.13s-.5-1.02-.54-1.66h3.1c.15.59.43.99.86,1.22.43.23.92.34,1.47.34.88,0,1.52-.26,1.93-.79.4-.53.6-1.2.58-2v-1.5h-.04c-.34.6-.82,1.04-1.44,1.33-.62.29-1.28.43-1.97.43-.85,0-1.58-.15-2.2-.45-.62-.3-1.12-.71-1.52-1.23-.4-.52-.69-1.13-.87-1.83-.18-.7-.28-1.43-.28-2.21,0-.73.11-1.44.32-2.12.21-.68.52-1.28.93-1.8s.92-.94,1.53-1.24c.61-.31,1.31-.46,2.1-.46.75,0,1.4.14,1.97.42.56.28,1.04.75,1.42,1.41h.04v-1.52h2.97v10.65c0,.45-.06.97-.19,1.56ZM509.01,26.96c.34-.18.62-.41.84-.7.22-.29.38-.63.5-1,.11-.37.17-.77.17-1.18,0-.47-.04-.91-.13-1.33-.09-.42-.23-.79-.44-1.11-.21-.32-.48-.58-.81-.77-.34-.19-.76-.29-1.28-.29-.44,0-.82.09-1.13.26-.32.18-.58.42-.79.72-.21.3-.37.65-.46,1.03-.09.39-.14.8-.14,1.22s.04.82.12,1.22c.08.4.22.77.42,1.09.2.32.46.59.78.79.32.21.73.31,1.21.31.44,0,.83-.09,1.17-.26Z"/>
    <path class="cls-1" d="M522.67,18.54v2.09h-2.29v5.63c0,.53.09.88.26,1.06.18.18.53.26,1.06.26.18,0,.34,0,.51-.02s.32-.04.46-.07v2.42c-.26.04-.56.07-.88.09-.32.01-.64.02-.95.02-.48,0-.94-.03-1.38-.1-.43-.07-.81-.19-1.14-.38s-.59-.46-.78-.81c-.19-.35-.29-.81-.29-1.39v-6.71h-1.89v-2.09h1.89v-3.41h3.12v3.41h2.29Z"/>
    <path class="cls-1" d="M528.19,26.52v3.39h-3.45v-3.39h3.45Z"/>
  </g>
</svg>